<?xml version="1.0" standalone="no"?>
<!DOCTYPE svg PUBLIC "-//W3C//DTD SVG 20010904//EN"
 "http://www.w3.org/TR/2001/REC-SVG-20010904/DTD/svg10.dtd">
<svg version="1.0" xmlns="http://www.w3.org/2000/svg"
 width="1200.000000pt" height="759.000000pt" viewBox="0 0 1200.000000 759.000000"
 preserveAspectRatio="xMidYMid meet">
<metadata>
Created by potrace 1.10, written by Peter Selinger 2001-2011
</metadata>
<g transform="translate(0.000000,759.000000) scale(0.100000,-0.100000)"
fill="#ffffff" stroke="none">
<path d="M440 3680 l0 -1950 1438 2 1437 3 0 40 0 40 -1377 3 -1378 2 0 1853
0 1852 5340 -2 5341 -3 2 -1850 2 -1850 -1297 0 -1298 0 0 -45 0 -45 1355 0
1355 0 0 1950 0 1950 -5460 0 -5460 0 0 -1950z"/>
<path d="M3437 4184 c-11 -12 -8 -69 5 -82 7 -7 21 -12 33 -12 41 0 48 -14 52
-109 4 -104 1 -108 -61 -61 -69 52 -160 38 -228 -35 -16 -16 -31 -41 -35 -55
-3 -14 -11 -31 -17 -39 -6 -7 -12 -58 -14 -113 -4 -78 -1 -109 13 -146 21 -54
70 -122 90 -122 7 0 18 -7 25 -15 9 -10 32 -15 74 -15 57 0 65 3 100 35 21 19
42 35 47 35 4 0 9 -15 11 -32 l3 -33 103 -3 102 -3 0 46 c0 45 -1 47 -41 63
l-41 16 6 70 c3 39 6 193 7 341 l2 270 -115 3 c-63 1 -117 -1 -121 -4z m66
-386 c18 -24 20 -40 18 -140 -3 -142 -13 -158 -102 -158 -54 0 -58 2 -78 34
-17 27 -21 50 -21 125 0 81 3 96 25 132 26 40 26 40 82 37 47 -3 59 -7 76 -30z"/>
<path d="M8268 4185 c-2 -3 -2 -24 1 -47 6 -40 9 -43 38 -46 17 -2 36 -9 42
-16 8 -9 10 -105 9 -302 l-3 -288 -40 -12 c-38 -10 -40 -13 -40 -50 l0 -39
148 -3 148 -3 -3 43 c-2 34 -7 44 -23 46 -43 8 -45 18 -45 178 0 147 1 153 22
168 13 10 43 16 73 16 45 0 54 -4 73 -30 20 -27 22 -41 22 -170 l0 -141 -35
-15 c-32 -13 -35 -18 -35 -54 l0 -40 146 0 145 0 -3 43 c-3 36 -6 42 -28 45
-14 2 -29 8 -34 13 -6 5 -10 78 -11 161 -2 193 -20 247 -99 289 -67 36 -145
23 -200 -33 -10 -10 -24 -18 -33 -18 -12 0 -14 11 -9 63 3 34 8 104 11 155 l7
92 -120 0 c-65 0 -121 -2 -124 -5z"/>
<path d="M1889 4128 c-6 -19 -2 -186 4 -195 5 -8 31 -13 58 -13 39 0 49 4 54
20 3 11 4 29 0 39 -8 27 21 41 88 41 35 0 56 -4 58 -12 2 -7 2 -130 -1 -273
l-5 -260 -42 -3 -43 -3 0 -45 0 -44 165 0 165 0 0 44 0 45 -42 3 -43 3 -5 260
c-3 143 -3 266 -1 273 2 8 23 12 58 12 67 0 96 -14 88 -41 -4 -10 -3 -28 0
-39 5 -16 15 -20 55 -20 28 0 52 5 57 13 4 6 8 54 8 105 l1 92 -338 0 c-186 0
-338 -1 -339 -2z"/>
<path d="M5770 4086 c0 -45 10 -56 51 -56 14 0 19 -7 19 -25 0 -14 7 -42 15
-62 8 -19 15 -49 15 -65 0 -16 7 -45 15 -65 8 -19 15 -47 15 -62 0 -14 6 -46
14 -71 20 -63 37 -136 46 -195 5 -27 13 -63 19 -78 11 -27 12 -28 83 -25 l73
3 3 30 c1 17 9 55 18 85 9 30 22 78 29 105 8 28 21 75 29 106 9 31 16 72 16
91 0 21 7 41 18 51 30 28 42 20 42 -25 1 -24 7 -61 15 -83 8 -22 15 -48 15
-59 0 -10 7 -39 14 -65 21 -65 43 -149 53 -196 l8 -40 70 -3 c82 -4 95 7 95
76 0 24 5 53 11 64 6 11 15 44 19 72 5 28 14 71 20 96 7 25 18 70 25 100 7 30
19 78 25 105 7 28 16 68 19 90 5 36 10 41 43 49 32 8 37 13 41 45 2 20 2 39 0
44 -2 4 -69 7 -149 7 l-144 0 0 -45 c0 -40 2 -45 23 -45 13 0 31 -6 40 -12 17
-14 17 -16 -15 -148 -6 -25 -14 -74 -18 -110 -4 -36 -10 -72 -13 -80 -3 -8 -8
-27 -11 -42 -4 -16 -13 -28 -21 -28 -14 0 -18 10 -29 75 -15 88 -26 136 -35
154 -6 11 -11 32 -11 48 -1 15 -7 39 -15 53 -8 14 -14 36 -15 48 0 13 -7 48
-16 78 l-15 54 -59 0 c-58 0 -58 0 -63 -32 -6 -40 -25 -112 -39 -153 -6 -16
-14 -48 -18 -70 -4 -22 -12 -53 -19 -68 -6 -16 -11 -41 -11 -57 0 -16 -4 -39
-9 -52 -5 -13 -12 -35 -15 -50 -4 -16 -13 -28 -21 -28 -15 0 -20 15 -29 85 -3
22 -10 70 -15 106 -4 37 -11 72 -15 77 -4 6 -11 36 -17 67 -12 64 -2 85 37 85
22 0 24 4 24 45 l0 45 -140 0 -140 0 0 -44z"/>
<path d="M7969 4084 c-6 -8 -8 -36 -3 -73 l7 -61 -47 0 -47 0 3 -57 c3 -57 4
-58 33 -60 17 0 36 -2 43 -2 9 -1 12 -45 12 -184 l0 -184 35 -36 c42 -44 60
-49 145 -45 l65 3 0 55 0 55 -47 3 c-27 2 -48 9 -51 17 -3 7 -7 79 -8 160 -2
164 -1 166 62 158 l39 -6 0 62 0 61 -48 0 c-27 0 -51 2 -54 5 -3 3 -1 30 5 61
5 31 5 59 1 64 -16 14 -134 18 -145 4z"/>
<path d="M9849 3952 c-24 -2 -45 -13 -65 -33 -34 -36 -42 -36 -46 -1 l-3 27
-117 3 -118 3 0 -28 c0 -41 13 -55 55 -62 l37 -6 -1 -172 c0 -95 0 -177 -1
-183 0 -5 -15 -13 -32 -18 -31 -8 -33 -11 -36 -55 l-3 -48 153 3 153 3 -2 35
c0 19 -1 38 -2 42 -1 4 -19 13 -41 19 l-40 12 0 149 c0 178 4 185 97 190 57 3
58 3 64 38 4 19 10 45 14 56 8 25 -8 31 -66 26z"/>
<path d="M2731 3929 c-40 -21 -101 -73 -101 -86 0 -5 -5 -14 -12 -21 -18 -18
-37 -100 -37 -157 0 -57 19 -139 37 -157 7 -7 12 -16 12 -21 0 -13 62 -66 103
-87 27 -14 57 -20 107 -20 95 0 161 32 211 102 40 56 61 196 40 264 -5 16 -12
41 -15 56 -8 35 -80 108 -129 131 -51 23 -169 21 -216 -4z m177 -116 c66 -66
68 -217 3 -295 -20 -25 -114 -25 -139 0 -28 28 -55 126 -47 170 9 54 28 104
45 123 21 24 115 25 138 2z"/>
<path d="M3930 3933 c-105 -48 -100 -42 -100 -105 0 -31 4 -59 9 -62 4 -3 31
-3 59 1 46 5 51 8 54 32 3 25 6 26 71 29 61 3 70 0 87 -20 11 -13 19 -39 20
-60 l0 -38 -78 0 c-100 0 -222 -42 -222 -76 0 -6 -7 -17 -15 -24 -10 -8 -15
-30 -15 -61 0 -97 74 -169 174 -169 58 0 119 27 130 57 8 20 34 0 38 -30 3
-21 8 -22 93 -22 l90 0 -3 40 c-2 26 -10 46 -25 59 -21 17 -22 26 -22 170 0
116 -3 157 -15 176 -51 85 -117 120 -224 119 -42 0 -85 -7 -106 -16z m198
-353 c3 -59 -25 -81 -103 -83 -63 -1 -76 8 -77 52 -2 57 40 80 142 77 34 -1
35 -2 38 -46z"/>
<path d="M4342 3903 c3 -39 7 -48 26 -53 24 -5 62 -59 62 -88 0 -10 7 -27 15
-38 8 -10 15 -27 15 -36 0 -9 7 -30 15 -47 8 -17 22 -45 30 -62 8 -17 15 -37
15 -46 0 -8 6 -27 13 -41 53 -104 52 -100 32 -135 -32 -57 -46 -67 -90 -67
l-42 0 -6 -52 c-2 -29 -3 -56 0 -60 2 -5 36 -8 74 -8 69 0 70 1 112 43 42 42
87 118 87 148 0 8 7 24 15 35 8 10 15 28 15 39 0 11 7 29 15 39 8 11 15 29 15
40 0 12 7 30 15 40 8 11 15 28 15 37 0 10 6 30 14 46 25 50 46 103 46 116 0
28 41 92 63 97 18 5 23 14 25 53 l3 47 -136 0 -136 0 3 -47 c3 -44 5 -48 31
-51 31 -4 35 -24 12 -68 -8 -16 -15 -39 -15 -51 0 -12 -4 -24 -9 -28 -5 -3
-13 -30 -16 -60 -6 -44 -11 -55 -26 -55 -22 0 -39 29 -39 67 0 15 -7 41 -15
57 -8 15 -15 36 -15 45 0 9 -7 27 -16 39 -19 28 -13 49 18 54 16 2 24 12 30
38 13 60 12 60 -137 60 l-136 0 3 -47z"/>
<path d="M5115 3932 c-77 -44 -115 -94 -115 -150 0 -37 40 -93 81 -113 47 -22
130 -49 152 -49 27 0 76 -31 83 -53 3 -11 0 -30 -7 -43 -11 -22 -19 -24 -84
-24 -78 0 -91 7 -104 57 -7 25 -12 28 -56 31 -26 2 -52 -1 -57 -6 -5 -5 -6
-33 -2 -63 12 -91 82 -133 224 -133 96 0 136 12 189 61 34 31 36 36 36 95 0
66 -11 85 -63 115 -34 20 -134 53 -160 53 -33 0 -79 29 -86 54 -8 30 20 66 52
67 92 4 121 -6 129 -42 8 -40 25 -51 75 -47 l43 3 3 62 c2 52 0 64 -18 81 -57
53 -253 80 -315 44z"/>
<path d="M6939 3932 c-45 -21 -96 -72 -121 -120 -15 -29 -20 -60 -21 -142 -2
-90 1 -111 20 -150 60 -121 215 -173 362 -121 71 25 85 39 74 81 -12 47 -35
59 -72 37 -20 -12 -51 -17 -103 -17 -71 0 -76 2 -103 31 -16 19 -28 44 -29 62
l-1 31 168 -3 167 -3 0 64 c0 114 -51 207 -135 248 -52 25 -154 26 -206 2z
m171 -120 c23 -24 32 -54 21 -70 -5 -9 -32 -12 -97 -10 -81 3 -89 5 -92 24 -3
23 35 69 64 77 33 9 86 -1 104 -21z"/>
<path d="M7490 3933 c-60 -27 -95 -46 -102 -57 -4 -6 -8 -32 -8 -58 0 -52 11
-61 65 -53 17 2 33 4 37 4 4 1 14 15 23 31 15 29 18 30 80 30 56 0 66 -3 79
-22 8 -13 16 -39 18 -58 l3 -35 -90 -6 c-139 -10 -203 -43 -230 -118 -12 -35
-12 -50 -2 -89 21 -81 76 -122 165 -122 50 0 66 5 100 30 23 17 49 30 57 30
10 0 15 -10 15 -30 l0 -30 91 0 90 0 -3 47 c-3 41 -7 50 -30 61 l-28 13 0 167
0 167 -38 43 c-21 23 -44 42 -52 42 -8 0 -24 7 -34 15 -27 20 -159 19 -206 -2z
m187 -315 c6 -7 8 -29 6 -48 -6 -47 -41 -72 -104 -74 -43 -1 -53 3 -69 24 -25
32 -25 33 5 69 25 29 40 34 126 39 15 1 31 -4 36 -10z"/>
<path d="M9099 3932 c-45 -21 -96 -72 -121 -120 -15 -30 -19 -59 -20 -149 0
-111 0 -111 35 -165 36 -53 51 -66 117 -100 66 -34 237 -16 295 32 17 14 13
62 -7 88 -14 16 -46 15 -64 -3 -11 -11 -37 -15 -93 -15 -74 0 -79 1 -106 31
-16 19 -28 44 -29 62 l-1 31 168 -3 167 -3 0 66 c0 110 -52 206 -133 245 -54
26 -155 27 -208 3z m172 -121 c22 -23 30 -53 20 -69 -5 -9 -32 -12 -97 -10
-81 3 -89 5 -92 24 -3 23 35 69 64 77 31 9 88 -3 105 -22z"/>
<path d="M3297 2870 c-1 -3 0 -223 3 -490 4 -392 8 -490 19 -513 8 -15 19 -26
25 -24 30 10 36 81 39 487 l2 408 24 26 24 26 2548 0 c2492 0 2547 0 2570 -19
l24 -19 5 -424 c5 -400 6 -425 25 -457 11 -19 24 -34 30 -35 20 -2 24 90 24
559 l1 480 -2681 0 c-1474 0 -2682 -2 -2682 -5z"/>
<path d="M5175 2244 c-14 -6 -10 -353 3 -366 6 -6 18 -8 26 -5 12 5 16 22 16
75 0 54 4 72 18 85 45 41 68 8 60 -89 -5 -60 7 -80 42 -69 18 6 20 14 20 88
-1 102 -16 127 -79 127 -23 0 -41 -5 -41 -11 0 -6 -6 -9 -12 -6 -9 2 -13 29
-13 88 0 84 -7 98 -40 83z"/>
<path d="M3944 2206 c-3 -8 3 -34 14 -58 10 -23 26 -63 36 -88 10 -25 24 -60
32 -78 8 -18 14 -39 14 -48 0 -24 29 -74 43 -74 7 0 18 21 25 48 26 98 30 114
35 118 11 11 38 -11 43 -35 16 -67 37 -121 49 -121 7 0 20 24 29 53 23 70 58
160 68 172 4 5 8 16 8 25 0 8 7 28 15 44 20 37 13 56 -20 56 -20 0 -27 -6 -32
-30 -3 -17 -10 -33 -14 -36 -5 -3 -9 -15 -10 -27 -1 -32 -35 -132 -44 -130
-10 2 -39 72 -61 150 -12 41 -24 65 -36 69 -37 11 -51 -23 -23 -60 18 -24 19
-59 3 -89 -6 -12 -14 -35 -17 -50 -12 -58 -29 -30 -77 128 -11 33 -23 63 -29
67 -17 13 -45 9 -51 -6z"/>
<path d="M5879 2215 c0 -3 -1 -78 -1 -167 -1 -134 2 -164 14 -172 9 -5 23 -6
32 -3 15 6 16 18 10 101 -4 52 -3 103 0 113 7 17 8 17 21 0 7 -10 52 -58 99
-107 47 -49 86 -94 86 -100 0 -6 7 -10 16 -8 14 3 17 26 19 171 3 144 1 169
-12 174 -23 9 -48 -11 -47 -38 1 -13 4 -59 8 -101 6 -73 5 -78 -13 -78 -11 0
-24 6 -28 14 -4 8 -30 38 -58 68 -27 29 -63 69 -79 88 -25 31 -65 57 -67 45z"/>
<path d="M7533 2214 c-10 -4 -13 -47 -13 -163 0 -168 -2 -176 -53 -194 -28
-10 -17 -41 16 -45 22 -3 36 5 63 33 l34 36 2 125 c4 226 5 209 -17 211 -11 1
-26 -1 -32 -3z"/>
<path d="M7875 2211 c-36 -15 -59 -50 -59 -88 0 -28 7 -41 35 -64 18 -16 41
-29 50 -29 24 0 69 -39 69 -60 0 -19 -40 -50 -65 -50 -9 0 -27 7 -40 16 -26
17 -65 11 -65 -10 0 -31 41 -51 102 -51 58 0 62 2 94 39 19 22 34 48 34 59 0
34 -41 78 -95 102 -60 28 -73 49 -49 76 20 22 40 23 73 5 14 -8 31 -12 38 -9
15 6 18 49 3 58 -17 11 -105 15 -125 6z"/>
<path d="M4573 2174 c-8 -23 12 -38 41 -30 29 7 35 31 10 40 -26 10 -44 7 -51
-10z"/>
<path d="M4868 2150 c-9 -6 -14 -18 -11 -29 3 -13 -2 -21 -16 -26 -27 -8 -27
-27 0 -44 20 -12 21 -19 16 -92 -6 -77 -6 -79 18 -85 40 -10 46 2 43 89 -3 79
-2 81 22 87 36 9 38 38 3 42 -20 2 -28 9 -28 23 0 22 -12 45 -23 45 -4 0 -14
-5 -24 -10z"/>
<path d="M7190 2145 c-6 -8 -9 -19 -5 -25 4 -6 -4 -19 -17 -30 l-23 -20 24
-18 c22 -18 23 -23 17 -94 -8 -83 -3 -94 40 -84 25 7 25 7 18 86 -7 79 -6 80
20 90 33 12 34 38 1 46 -19 5 -24 11 -20 25 4 12 -1 21 -14 28 -25 14 -26 14
-41 -4z"/>
<path d="M4583 2093 c-9 -3 -13 -35 -13 -109 0 -110 8 -128 46 -106 16 9 18
23 15 108 -3 106 -11 123 -48 107z"/>
<path d="M6464 2091 c-71 -31 -88 -150 -28 -195 57 -41 151 -26 125 21 -10 19
-14 20 -41 10 -25 -10 -33 -9 -40 3 -15 23 -12 29 18 36 37 8 85 25 96 35 14
12 -2 53 -29 72 -30 22 -73 29 -101 18z m61 -64 c0 -13 -12 -23 -37 -32 -33
-11 -38 -11 -38 3 0 24 32 53 54 50 13 -2 21 -10 21 -21z"/>
<path d="M6781 2091 c-12 -8 -8 -17 22 -50 20 -23 37 -48 37 -55 0 -8 -16 -32
-34 -53 -26 -28 -32 -40 -24 -50 16 -19 46 -16 53 6 3 10 14 26 24 35 18 16
20 15 39 -19 22 -36 48 -45 70 -23 9 9 3 20 -23 50 -42 45 -43 57 -10 96 29
35 32 60 8 69 -10 4 -21 0 -29 -13 -41 -60 -39 -60 -62 -20 -21 36 -44 44 -71
27z"/>
<path d="M8603 1687 c-21 -31 -23 -44 -23 -184 0 -156 -9 -206 -40 -223 -12
-7 -922 -10 -2563 -10 -2410 0 -2545 1 -2559 18 -26 29 -38 106 -38 237 0 93
-4 134 -15 155 -19 37 -28 38 -45 3 -10 -20 -16 -96 -20 -268 -3 -132 -5 -243
-3 -247 2 -4 16 -3 31 3 17 6 1023 8 2680 7 l2652 -3 -1 240 c-2 308 -9 342
-56 272z"/>
</g>
</svg>
